<?xml version="1.0" standalone="no"?>
<!DOCTYPE svg PUBLIC "-//W3C//DTD SVG 20010904//EN"
 "http://www.w3.org/TR/2001/REC-SVG-20010904/DTD/svg10.dtd">
<svg version="1.0" xmlns="http://www.w3.org/2000/svg"
 width="577.000000pt" height="432.000000pt" viewBox="0 0 577.000000 432.000000"
 preserveAspectRatio="xMidYMid meet">

<g transform="translate(0.000000,432.000000) scale(0.100000,-0.100000)"
fill="#000000" stroke="none">
<path d="M1820 3460 c0 -5 -12 -10 -27 -10 -16 0 -39 -7 -53 -15 -14 -8 -34
-18 -45 -24 -29 -13 -78 -68 -71 -79 7 -12 -28 -44 -39 -35 -4 5 -5 2 -1 -4 8
-15 -17 -56 -28 -46 -4 4 -4 0 -1 -9 3 -8 -1 -23 -11 -32 -9 -9 -14 -20 -11
-23 6 -6 -20 -63 -29 -63 -2 0 3 15 12 33 13 23 13 29 3 20 -8 -6 -27 -38 -44
-70 -16 -32 -34 -65 -41 -73 -6 -8 -19 -40 -29 -70 -10 -30 -21 -59 -25 -65
-4 -5 -22 -49 -40 -98 -18 -48 -38 -86 -44 -85 -6 1 -21 -3 -33 -10 -31 -17
-59 -1 -66 37 -11 53 -45 66 -187 69 -148 4 -187 -9 -207 -68 -19 -55 -16
-124 6 -151 18 -23 26 -24 183 -29 129 -4 170 -9 196 -23 17 -10 32 -22 32
-28 0 -6 -15 -43 -34 -84 -42 -91 -55 -141 -33 -129 33 20 120 127 126 156 4
17 12 33 19 36 9 3 12 -25 12 -112 0 -91 -3 -116 -13 -116 -19 0 -42 -27 -72
-84 -14 -27 -37 -69 -51 -93 -13 -24 -24 -51 -24 -61 0 -9 -14 -37 -30 -61
-17 -24 -30 -49 -30 -55 1 -6 6 -2 13 9 45 76 93 116 139 114 19 -1 17 -3 -9
-10 -49 -14 -52 -31 -4 -23 51 8 56 -12 11 -38 -21 -12 -30 -25 -31 -45 -1
-15 -3 -40 -5 -55 -3 -27 -2 -28 50 -28 l54 0 7 88 c7 85 18 118 36 106 5 -3
10 -22 10 -42 l2 -37 6 35 6 35 251 3 252 2 25 -42 c14 -24 33 -74 42 -112 14
-57 15 -70 4 -78 -20 -13 -191 -1 -201 15 -6 9 -8 9 -8 0 0 -14 -138 -16 -280
-4 l-75 6 -6 60 -6 60 -1 -63 c-2 -55 -4 -63 -19 -58 -10 3 -72 8 -138 11 -95
4 -122 8 -132 21 -10 14 -15 7 -29 -45 l-17 -61 -38 0 c-55 0 -62 -18 -47
-132 13 -105 15 -221 4 -353 -4 -49 -7 -112 -6 -139 0 -28 -5 -63 -11 -79 -9
-20 -9 -31 -1 -35 7 -5 10 -83 9 -235 l-1 -228 27 -27 c27 -26 31 -27 161 -30
188 -5 352 10 396 36 33 19 149 61 215 77 65 15 769 41 1535 55 722 13 781 6
884 -112 48 -55 53 -57 216 -79 94 -13 244 -4 275 17 13 9 27 30 31 47 3 17 5
212 3 432 -2 220 -3 446 -3 503 l-1 102 -53 0 c-57 0 -65 19 -9 21 l32 2 -35
7 -35 6 37 8 c21 5 49 5 63 2 34 -9 55 32 36 68 -9 15 -11 43 -8 77 l6 54 -11
-47 c-5 -26 -15 -48 -21 -50 -7 -2 -76 -2 -155 0 l-142 3 -15 29 c-14 28 -14
29 13 33 25 4 25 4 -5 6 -21 0 -33 -4 -33 -11 0 -10 -3 -9 -9 1 -7 10 -41 13
-157 11 -243 -4 -525 -2 -531 4 -3 3 2 26 10 51 9 25 13 53 10 62 -5 12 -3 14
7 8 10 -6 12 -4 7 8 -7 19 21 107 34 107 5 0 2 -15 -7 -32 l-16 -33 24 29 24
28 274 3 c151 1 302 3 334 3 33 0 68 -4 78 -9 10 -5 18 -7 18 -5 0 13 -62 35
-104 37 -56 3 -68 15 -25 24 46 10 71 70 54 128 -7 23 -18 42 -26 42 -16 1
-16 2 1 110 6 44 14 96 17 115 5 30 6 32 13 14 5 -12 16 -24 25 -28 11 -4 14
-12 10 -26 -8 -24 55 -106 67 -87 6 9 8 9 8 -1 0 -21 30 -85 37 -79 6 6 -33
179 -46 207 -5 8 -20 21 -34 28 -18 9 -30 26 -38 55 -6 23 -19 62 -29 87 -10
25 -25 68 -33 95 -13 44 -51 144 -134 355 -15 36 -46 100 -70 144 -23 43 -43
82 -43 86 0 4 -7 13 -15 20 -8 7 -13 16 -10 20 6 10 -43 50 -61 50 -8 0 -14 5
-14 11 0 9 -37 28 -87 43 -18 6 -21 4 -16 -15 5 -18 3 -21 -10 -16 -92 35
-1437 55 -1934 29 -73 -4 -133 -5 -133 -2 0 4 5 11 12 18 9 9 9 12 0 12 -7 0
-12 -4 -12 -10z m-195 -330 c4 -28 3 -56 -2 -63 -11 -13 -65 -163 -109 -301
-36 -109 -40 -115 -87 -123 -32 -5 -37 -3 -37 13 0 49 39 153 130 354 90 197
94 202 105 120z m997 -27 l3 -38 105 -5 c58 -3 113 -10 123 -14 12 -6 22 -4
30 7 8 10 40 17 100 21 107 9 115 12 123 43 l6 24 222 -6 c196 -6 427 -31 483
-52 7 -3 22 -22 32 -42 31 -60 83 -232 88 -293 3 -32 9 -55 14 -53 7 5 25
-102 18 -109 -2 -2 -22 -1 -44 3 l-40 6 -6 95 c-10 145 -37 211 -97 238 -30
13 -71 17 -207 17 -157 0 -173 -2 -216 -23 -52 -25 -62 -43 -78 -141 -14 -87
-37 -111 -107 -111 -29 0 -76 5 -105 11 -40 9 -98 7 -263 -6 -208 -17 -265
-25 -171 -25 27 0 46 -3 43 -6 -4 -3 -47 -2 -96 1 l-90 7 -7 63 c-8 82 -76
221 -123 252 -68 45 -375 41 -441 -6 -16 -12 -32 -21 -35 -21 -8 0 44 134 58
148 29 29 211 50 448 51 l227 1 3 -37z m-1146 -52 c-15 -28 -28 -51 -31 -51
-3 0 7 25 22 55 15 30 29 53 31 51 2 -2 -8 -27 -22 -55z m-95 -228 c-12 -20
-14 -14 -5 12 4 9 9 14 11 11 3 -2 0 -13 -6 -23z m930 -40 c5 -5 4 -24 -2 -46
l-10 -37 -129 0 -130 0 0 28 c1 29 16 55 40 65 21 10 220 1 231 -10z m1390 -3
c10 -6 19 -17 19 -24 0 -11 -6 -11 -37 0 -21 7 -50 13 -65 14 -15 0 -30 5 -33
10 -8 13 90 13 116 0z m-2353 -41 c-6 -16 -12 -28 -14 -26 -5 5 13 57 20 57 3
0 0 -14 -6 -31z m492 -4 c0 -19 -4 -35 -10 -35 -11 0 -14 53 -3 63 11 12 13 8
13 -28z m1815 -33 c22 -13 30 -20 17 -17 -12 4 -73 6 -134 7 -62 0 -116 2
-121 5 -4 3 -2 12 5 20 20 24 181 14 233 -15z m-1815 -77 c0 -8 -7 -15 -15
-15 -8 0 -15 7 -15 15 0 8 7 15 15 15 8 0 15 -7 15 -15z m1208 -5 c61 0 112
-3 112 -7 0 -11 -368 -4 -405 8 -21 6 2 7 75 4 58 -2 156 -5 218 -5z m-1741
-116 c-3 -3 -12 -4 -19 -1 -8 3 -5 6 6 6 11 1 17 -2 13 -5z m158 -97 c83 -27
220 -40 345 -33 174 10 1490 7 1785 -4 518 -19 602 -14 709 46 l49 27 -7 -44
c-15 -96 -38 -181 -46 -169 -4 7 -13 9 -19 6 -6 -4 -11 -2 -11 3 0 6 -10 11
-23 11 -13 0 -27 4 -33 9 -8 8 -74 20 -224 42 -108 16 -140 19 -219 24 -42 2
-116 8 -166 14 -49 5 -130 10 -180 10 -49 0 -90 1 -90 1 0 1 -250 3 -555 5
-572 4 -862 -5 -1135 -34 -129 -14 -280 -45 -301 -62 -8 -6 -13 5 -18 37 -7
58 -8 159 0 166 3 3 24 -4 47 -16 23 -13 65 -30 92 -39z m27 51 c-4 -4 -21 -3
-37 2 -30 9 -30 9 7 7 21 0 34 -5 30 -9z m-227 -508 c-3 -5 -11 -10 -16 -10
-6 0 -7 5 -4 10 3 6 11 10 16 10 6 0 7 -4 4 -10z m1634 -35 c17 -20 31 -42 31
-50 0 -7 7 -21 16 -29 14 -15 14 -16 -1 -16 -8 0 -19 -10 -24 -22 -11 -28 -59
-74 -68 -65 -3 4 -1 7 5 7 12 0 52 57 52 73 0 4 -35 7 -77 7 -54 0 -73 3 -63
10 11 7 3 10 -29 10 -35 0 -42 -3 -37 -16 3 -9 6 -20 6 -24 0 -5 13 -23 30
-40 21 -22 39 -30 67 -31 34 -2 35 -2 8 -6 -42 -7 -93 24 -115 68 -11 20 -16
39 -13 43 4 3 -1 6 -10 6 -19 0 -17 4 47 73 31 34 38 37 89 37 50 0 58 -3 86
-35z m-1634 -25 c-7 -11 -35 -14 -35 -4 0 3 5 15 11 26 10 19 12 20 21 5 5
-10 6 -22 3 -27z m-180 -105 c0 -14 -3 -25 -7 -25 -4 0 -5 -7 -2 -15 4 -9 0
-15 -8 -15 -12 0 -13 8 -4 45 11 47 19 51 21 10z m3615 -152 c0 -10 -19 -13
-72 -12 -64 1 -70 2 -47 12 14 7 32 17 40 23 34 28 79 15 79 -23z m-1280 -61
c3 -4 3 -61 0 -127 l-5 -120 -300 -2 c-165 -2 -437 1 -605 5 l-305 7 -5 118
c-3 65 -2 121 2 125 9 9 1211 3 1218 -6z m910 -272 c0 -5 -2 -10 -4 -10 -3 0
-8 5 -11 10 -3 6 -1 10 4 10 6 0 11 -4 11 -10z m-3058 -36 c2 -19 0 -37 -4
-40 -4 -3 -8 13 -8 35 0 51 6 53 12 5z m3146 29 c-10 -2 -28 -2 -40 0 -13 2
-5 4 17 4 22 1 32 -1 23 -4z m-117 -27 c5 3 9 -6 9 -20 0 -21 -5 -26 -25 -26
-27 0 -34 15 -10 24 8 3 13 11 11 18 -1 7 -1 10 1 5 3 -4 9 -5 14 -1z m57 -68
c-3 -7 -13 -15 -23 -16 -15 -4 -16 -2 -4 12 17 19 32 21 27 4z m-91 -14 c-3
-3 -12 -4 -19 -1 -8 3 -5 6 6 6 11 1 17 -2 13 -5z"/>
<path d="M2736 1909 c-14 -17 -26 -35 -26 -41 0 -6 31 -8 80 -6 44 2 80 1 80
-1 0 -2 -8 -10 -17 -17 -16 -12 -14 -13 20 -14 42 0 47 12 22 60 -19 37 -43
50 -93 50 -33 0 -45 -6 -66 -31z"/>
<path d="M2206 1572 c-2 -4 13 -6 35 -4 21 2 39 6 39 8 0 7 -69 4 -74 -4z"/>
<path d="M2748 1563 c122 -2 322 -2 445 0 122 1 22 2 -223 2 -245 0 -345 -1
-222 -2z"/>
<path d="M2290 1543 c-37 -14 -50 -36 -50 -89 0 -58 14 -80 57 -90 21 -6 31
-1 50 20 13 15 23 38 23 52 0 21 -4 24 -36 24 -24 0 -34 -4 -31 -12 2 -7 10
-13 18 -13 26 0 16 -40 -10 -43 -46 -7 -68 59 -35 106 19 28 38 28 64 0 17
-18 20 -19 20 -5 0 17 -34 58 -47 56 -5 0 -15 -3 -23 -6z"/>
<path d="M2433 1539 c-30 -11 -43 -40 -43 -92 0 -48 30 -87 66 -87 28 0 64 41
64 73 0 23 -4 27 -29 27 -36 0 -51 -19 -22 -27 33 -9 22 -38 -14 -38 -29 0
-30 2 -33 52 -3 45 0 53 19 64 19 10 25 9 40 -10 31 -38 52 -24 24 16 -17 25
-43 33 -72 22z"/>
<path d="M2660 1450 c0 -53 4 -90 10 -90 6 0 10 16 10 35 0 34 1 35 38 35 46
0 62 14 62 55 0 43 -16 55 -72 55 l-48 0 0 -90z m98 33 c3 -21 -1 -23 -37 -23
-37 0 -41 2 -41 26 0 23 3 25 38 22 30 -2 38 -7 40 -25z"/>
<path d="M2810 1525 c0 -8 9 -15 20 -15 18 0 20 -7 20 -75 0 -60 3 -75 15 -75
12 0 15 15 15 75 0 60 3 75 15 75 8 0 15 7 15 15 0 11 -12 15 -50 15 -38 0
-50 -4 -50 -15z"/>
<path d="M3035 1526 c-14 -10 -19 -28 -20 -75 -2 -69 10 -91 50 -91 38 0 52
23 53 87 1 82 -34 115 -83 79z m60 -40 c0 -10 -8 -24 -18 -30 -24 -15 -53 19
-35 41 16 20 53 12 53 -11z m0 -75 c0 -8 -8 -19 -17 -25 -14 -8 -21 -7 -34 6
-9 9 -13 21 -9 28 10 15 60 8 60 -9z"/>
<path d="M3150 1513 c0 -21 3 -24 12 -15 7 7 22 12 35 12 23 0 23 0 -12 -68
-61 -118 -40 -126 25 -9 54 97 53 107 -10 107 -48 0 -50 -1 -50 -27z"/>
<path d="M3270 1485 l0 -56 34 6 c26 5 35 3 40 -11 4 -10 0 -24 -9 -33 -12
-13 -19 -13 -35 -3 -28 17 -32 15 -20 -8 12 -23 59 -27 78 -8 32 32 0 98 -46
98 -15 0 -22 6 -22 20 0 17 7 20 40 20 29 0 40 4 40 15 0 11 -12 15 -50 15
l-50 0 0 -55z"/>
<path d="M2560 1445 c0 -10 10 -15 30 -15 20 0 30 5 30 15 0 10 -10 15 -30 15
-20 0 -30 -5 -30 -15z"/>
<path d="M4600 2774 c-67 -12 -68 -13 -85 -64 -9 -27 -20 -50 -23 -50 -4 0
-24 4 -44 9 -48 11 -53 -3 -29 -72 11 -28 22 -64 25 -79 7 -32 22 -34 74 -11
29 13 71 17 189 18 125 1 156 5 178 19 36 24 41 42 22 82 -16 33 -18 34 -76
34 -89 0 -91 26 -4 49 52 14 74 45 40 55 -29 8 -235 16 -267 10z"/>
<path d="M1733 1993 c9 -2 23 -2 30 0 6 3 -1 5 -18 5 -16 0 -22 -2 -12 -5z"/>
<path d="M1813 1993 c9 -2 23 -2 30 0 6 3 -1 5 -18 5 -16 0 -22 -2 -12 -5z"/>
<path d="M1485 1981 c-6 -11 9 -23 19 -14 9 9 7 23 -3 23 -6 0 -12 -4 -16 -9z"/>
<path d="M1850 1962 c0 -11 5 -24 10 -27 6 -3 10 0 10 7 0 9 3 9 10 -2 5 -8
10 -10 10 -4 0 6 -9 19 -20 29 -19 18 -20 17 -20 -3z"/>
<path d="M1422 1917 c-16 -44 -16 -44 13 -49 14 -3 25 -1 25 4 0 5 5 6 10 3
16 -10 12 23 -6 50 -21 33 -28 31 -42 -8z"/>
<path d="M1820 1905 c0 -8 2 -15 4 -15 2 0 6 7 10 15 3 8 1 15 -4 15 -6 0 -10
-7 -10 -15z"/>
<path d="M3750 1870 c0 -36 3 -40 25 -40 14 0 25 5 25 10 0 6 -3 9 -7 9 -29
-5 -35 3 -29 31 3 17 1 30 -4 30 -6 0 -10 -18 -10 -40z"/>
<path d="M1541 1891 c-8 -6 -9 -11 -3 -15 6 -3 14 -1 17 5 9 14 2 20 -14 10z"/>
<path d="M1666 1893 c-10 -10 -7 -48 6 -61 9 -9 7 -11 -10 -7 -14 2 -19 -1
-16 -9 6 -15 84 -21 84 -7 0 5 8 11 18 13 11 3 4 8 -20 17 -26 8 -38 19 -38
31 0 20 -13 33 -24 23z"/>
<path d="M1786 1881 c-3 -5 1 -11 9 -14 9 -4 12 -1 8 9 -6 16 -10 17 -17 5z"/>
<path d="M1725 1870 c3 -5 8 -10 11 -10 2 0 4 5 4 10 0 6 -5 10 -11 10 -5 0
-7 -4 -4 -10z"/>
<path d="M1870 1870 c0 -5 5 -10 11 -10 5 0 7 5 4 10 -3 6 -8 10 -11 10 -2 0
-4 -4 -4 -10z"/>
<path d="M1860 1834 c0 -9 -5 -13 -12 -9 -7 4 -4 -1 7 -10 18 -14 20 -14 26 2
4 10 5 21 2 26 -8 13 -23 7 -23 -9z"/>
<path d="M1588 1833 c6 -2 18 -2 25 0 6 3 1 5 -13 5 -14 0 -19 -2 -12 -5z"/>
<path d="M1790 1831 c0 -11 26 -22 34 -14 12 12 5 23 -14 23 -11 0 -20 -4 -20
-9z"/>
<path d="M1911 1804 c0 -11 3 -14 6 -6 3 7 2 16 -1 19 -3 4 -6 -2 -5 -13z"/>
<path d="M3808 1813 c6 -2 18 -2 25 0 6 3 1 5 -13 5 -14 0 -19 -2 -12 -5z"/>
<path d="M3907 1800 c3 -11 12 -20 19 -20 8 0 14 9 14 20 0 13 -7 20 -19 20
-14 0 -18 -5 -14 -20z"/>
<path d="M4488 1773 c7 -3 16 -2 19 1 4 3 -2 6 -13 5 -11 0 -14 -3 -6 -6z"/>
</g>
</svg>
